<?xml version="1.0" encoding="utf-8"?>
<!-- Generator: Adobe Illustrator 22.1.0, SVG Export Plug-In . SVG Version: 6.00 Build 0)  -->
<svg version="1.1" id="Layer_1" xmlns="http://www.w3.org/2000/svg" xmlns:xlink="http://www.w3.org/1999/xlink" x="0px" y="0px"
	 viewBox="0 0 66.8 62.5" style="enable-background:new 0 0 66.8 62.5;" xml:space="preserve">
<style type="text/css">
	.st0{fill:#5B584F;}
</style>
<path class="st0" d="M61.5,15.1H6.8c-1,0-1.8-0.8-1.8-1.8V6.6c0-1,0.8-1.8,1.8-1.8l54.7,0c1,0,1.8,0.8,1.8,1.8v6.7
	C63.3,14.2,62.5,15.1,61.5,15.1z"/>
<path class="st0" d="M61.5,59.2H6.8c-1,0-1.8-0.8-1.8-1.8v-6.7c0-1,0.8-1.8,1.8-1.8h54.7c1,0,1.8,0.8,1.8,1.8v6.7
	C63.3,58.4,62.5,59.2,61.5,59.2z"/>
<path class="st0" d="M61.5,37.5H6.8c-1,0-1.8-0.8-1.8-1.8V29c0-1,0.8-1.8,1.8-1.8h54.7c1,0,1.8,0.8,1.8,1.8v6.7
	C63.3,36.7,62.5,37.5,61.5,37.5z"/>
</svg>
